<?xml version="1.0" encoding="UTF-8"?>
<svg id="Layer_2" data-name="Layer 2" xmlns="http://www.w3.org/2000/svg" viewBox="0 0 4042.21 1004.51">
  <defs>
    <style>
      .cls-1 {
        fill: #fff;
        stroke-width: 0px;
      }
    </style>
  </defs>
  <g id="Layer_1-2" data-name="Layer 1">
    <g>
      <path class="cls-1" d="m1098.08,267.75c50.53,0,101.06,0,151.59,0,3.19,0,6.39.1,9.58.22,1.7.07,2.5,1.99,1.56,3.59-.32.55-.64,1.11-.99,1.64-10.06,15.2-20.13,30.39-30.18,45.6-3.17,4.8-6.27,9.66-9.41,14.48-.87,1.34-1.76,2.67-2.7,3.96-1.18,1.63-2.72,2.68-4.8,2.75-1.28.05-2.56.09-3.83.1-2.56.02-5.12,0-7.68,0-81.55,0-163.1.01-244.65-.02-5.77,0-11.47.38-17.17,1.37-22,3.81-41.21,20.7-46.59,44.35-3.71,16.33-.79,31.8,9.04,45.66,10.42,14.68,24.65,22.91,42.51,24.76,4.44.46,8.94.51,13.41.51,59.48.03,118.97.13,178.45-.04,20.5-.06,40.01,3.95,58.63,12.37,9.94,4.49,19.31,10.04,27.82,16.88,25.49,20.5,42.78,46.24,50.25,78.4,5.55,23.92,4.92,47.57-1.6,71.15-5.55,20.07-15.35,37.81-29.05,53.48-19.11,21.86-42.76,36.21-70.81,43.4-10.89,2.79-22.05,3.69-33.23,4.21-1.91.09-3.84.02-5.76.02-96.58,0-193.17,0-289.75-.02-3.5,0-6.99-.34-10.49-.56-.64-.04-1.46-1.69-1.22-2.33.22-.59.27-1.26.57-1.8.62-1.12,1.33-2.18,2.03-3.25,12.55-18.92,25.09-37.85,37.65-56.76,1.06-1.6,2.21-3.14,3.27-4.73,1.34-2,3.14-3.12,5.59-3.14,3.2-.02,6.39-.08,9.59-.08,79.31,0,158.63,0,237.94-.01,3.84,0,7.69.12,11.51-.18,26.28-2.08,45.84-14.44,58.08-38.05,8.95-17.27,8.42-41.12.32-57.5-10.06-20.33-26.25-32.56-48.08-37.64-3.08-.72-6.33-.82-9.51-1.01-2.87-.16-5.75-.05-8.63-.05-59.8,0-119.61,0-179.41,0-13.5,0-26.81-1.54-39.75-5.48-16.06-4.89-30.82-12.34-43.95-22.9-12.59-10.12-23.05-22.06-31.34-35.96-8.81-14.78-14.41-30.69-16.77-47.64-5.31-38.16,4.4-72.31,28.53-102.25,9.29-11.53,20.48-21.03,33.22-28.73,21.08-12.74,43.95-18.76,68.47-18.77,49.25-.02,98.5,0,147.75,0Z"/>
      <path class="cls-1" d="m3802.77,269.73c1.3.44,2.07,1.38,2.67,2.55,5.72,11.08,11.46,22.15,17.18,33.24,9.24,17.9,18.48,35.8,27.68,53.72,7.88,15.36,15.66,30.78,23.53,46.15,7.15,13.95,14.37,27.85,21.54,41.78,8.92,17.34,17.82,34.71,26.74,52.05,7.76,15.07,15.56,30.11,23.31,45.19,12.13,23.61,24.21,47.24,36.35,70.84,7.75,15.07,15.63,30.07,23.38,45.15,8.04,15.64,15.96,31.35,23.96,47.01,3.78,7.4,7.67,14.75,11.44,22.16.71,1.4,1.12,2.96,1.63,4.46.22.67-.78,2.02-1.53,2.13-.94.14-1.88.38-2.82.4-2.88.07-5.76.06-8.63.06-83.48,0-166.96,0-250.44,0-3.51,0-7.03-.13-10.54-.28-1.5-.06-2.65-2.19-2.04-3.62.5-1.18,1-2.35,1.59-3.49,7.05-13.63,14.13-27.26,21.19-40.89,3.38-6.53,6.71-13.09,10.11-19.61.89-1.7,1.9-3.33,2.93-4.95.72-1.13,1.85-1.79,3.19-1.85,3.19-.14,6.39-.26,9.58-.26,35.5-.02,71.01,0,106.51-.04,3.17,0,6.42.53,9.49-.68.49-.19.97-.89,1.1-1.44.13-.57-.06-1.28-.31-1.85-.63-1.47-1.32-2.91-2.06-4.33-7.04-13.64-14.11-27.27-21.13-40.92-8.49-16.49-16.92-33.01-25.41-49.5-7.9-15.35-15.86-30.68-23.77-46.02-7.47-14.49-14.93-29-22.39-43.49-8.78-17.06-17.55-34.12-26.34-51.17-2.05-3.97-4.19-7.88-6.32-11.8-.43-.79-1.89-.76-2.4,0-.72,1.06-1.51,2.07-2.12,3.19-1.98,3.66-3.91,7.34-5.82,11.03-15.69,30.41-31.38,60.81-47.03,91.24-7.31,14.22-14.5,28.5-21.8,42.73-7.88,15.36-15.85,30.69-23.74,46.04-8.33,16.21-16.6,32.45-24.93,48.66-8.33,16.21-16.69,32.41-25.04,48.6-4.84,9.38-9.69,18.74-14.55,28.11-.74,1.42-1.3,2.98-2.29,4.2-.75.92-1.97,1.69-3.12,1.99-1.51.4-3.17.37-4.76.37-19.19.02-38.38.03-57.57-.02-1.55,0-3.13-.4-4.63-.82-.41-.12-.87-1.02-.84-1.54.05-.92.31-1.9.73-2.72,6.1-11.97,12.23-23.91,18.37-35.86,4.24-8.25,8.5-16.48,12.74-24.72,12.43-24.17,24.87-48.33,37.28-72.51,8.32-16.22,16.55-32.48,24.86-48.7,9.91-19.35,19.87-38.68,29.8-58.02,9.94-19.34,19.85-38.69,29.81-58.01,7.62-14.78,15.37-29.49,22.98-44.28,8.19-15.92,16.24-31.92,24.42-47.85,7.45-14.51,14.99-28.97,22.49-43.45,4.11-7.95,8.19-15.92,12.33-23.86.88-1.68,1.71-3.45,3.45-4.48Z"/>
      <path class="cls-1" d="m340.1,466.14c-42.53,0-85.07-.01-127.6,0-11.46,0-12.27.47-6.58-10.32,8.36-15.83,16.35-31.86,24.54-47.78,2.19-4.27,4.53-8.45,6.78-12.69,1.35-2.54,3.47-3.58,6.28-3.53,2.88.05,5.76-.03,8.63-.03,35.18,0,70.36.01,105.54-.03,3.17,0,6.35-.32,9.52-.51.71-.04,1.53-1.54,1.27-2.28-.53-1.5-.97-3.05-1.68-4.45-4.63-9.12-9.33-18.2-14-27.3-5.4-10.52-10.76-21.07-16.19-31.58-7.93-15.33-15.94-30.63-23.87-45.97-4.99-9.65-9.88-19.36-14.86-29.03-11.42-22.16-22.89-44.31-34.31-66.47-5.12-9.95-10.14-19.95-15.26-29.9-2.34-4.54-4.81-9.02-7.24-13.51-.57-1.04-2.69-1.12-3.26-.11-2.49,4.46-5.04,8.9-7.39,13.44-9.42,18.16-18.79,36.35-28.15,54.54-3.95,7.68-7.77,15.42-11.71,23.09-12.42,24.17-24.88,48.32-37.29,72.5-7.89,15.36-15.68,30.76-23.59,46.11-7.91,15.35-15.93,30.64-23.84,45.99-7.18,13.92-14.27,27.9-21.42,41.84-4.23,8.25-8.51,16.48-12.76,24.72-1.14,2.2-2.9,3.28-5.4,3.21-1.6-.04-3.2.04-4.8.04-17.91,0-35.82,0-53.73,0-1.91,0-3.83-.12-5.74-.23-1.33-.07-2.33-1.52-1.9-2.69.44-1.19.83-2.42,1.4-3.55,3.31-6.57,6.64-13.12,10-19.66,11.39-22.19,22.78-44.38,34.2-66.55,11.86-23.02,23.79-46.01,35.63-69.04,13.74-26.73,27.39-53.51,41.12-80.24,8.03-15.64,16.18-31.23,24.23-46.86,7.46-14.5,14.84-29.04,22.3-43.54,8.78-17.06,17.63-34.07,26.41-51.13,7.46-14.5,14.82-29.05,22.28-43.55,5.99-11.66,12.05-23.28,18.1-34.91.59-1.13,1.27-2.22,1.95-3.3.67-1.07,2.67-1.21,3.24-.19,2.19,3.9,4.42,7.77,6.47,11.74,8.65,16.76,17.24,33.55,25.86,50.33,7.74,15.07,15.5,30.13,23.25,45.19,8.63,16.78,17.26,33.55,25.88,50.33,5.55,10.8,11.08,21.62,16.65,32.41,8.07,15.62,16.2,31.21,24.26,46.84,3.22,6.25,6.3,12.58,9.5,18.84,11.23,21.91,22.48,43.81,33.76,65.69,8.06,15.63,16.2,31.22,24.27,46.84,6.6,12.78,13.13,25.6,19.7,38.4,7.88,15.36,15.78,30.71,23.65,46.08,1.6,3.13,3.11,6.3,4.62,9.47.53,1.11-.41,2.88-1.55,2.93-3.19.15-6.37.33-9.56.33-42.53.02-85.07.01-127.6.01Z"/>
      <path class="cls-1" d="m137.95,538.42c42.22,0,84.44,0,126.66.01,3.19,0,6.38.19,9.57.34,1.09.05,2.2,1.86,1.8,2.88-.58,1.48-1.1,3-1.82,4.41-6.11,11.96-12.22,23.92-18.4,35.84-4.71,9.08-9.54,18.1-14.29,27.16-1.15,2.2-2.93,3.33-5.35,3.41-2.88.1-5.75.13-8.63.13-34.54,0-69.09,0-103.63,0-2.88,0-5.76-.03-8.64.03-5.01.1-5.95,1.49-3.93,5.67.14.29.29.57.43.86.14.29.29.57.43.86,11.43,22.17,22.89,44.32,34.3,66.5,7.6,14.79,15.1,29.63,22.71,44.41,8.48,16.49,17.04,32.95,25.52,49.44,7.46,14.5,14.85,29.04,22.31,43.54,6.44,12.51,12.91,25,19.42,37.47.57,1.1,1.45,2.08,2.35,2.93.29.28,1.34.18,1.7-.13.69-.62,1.23-1.46,1.67-2.29,6.05-11.63,12.07-23.27,18.08-34.92,4.55-8.81,9.07-17.63,13.6-26.45,8.17-15.93,16.32-31.87,24.52-47.79,8.34-16.2,16.75-32.38,25.08-48.58,5.41-10.52,10.72-21.09,16.14-31.6,8.06-15.63,16.21-31.21,24.29-46.83,3.38-6.53,6.67-13.11,10.03-19.65,10.21-19.92,20.44-39.83,30.66-59.74.88-1.71,1.76-3.41,2.65-5.11.8-1.54,2.13-2.37,3.8-2.56,1.58-.17,3.19-.23,4.79-.23,18.87-.01,37.74-.03,56.61.03,1.88,0,3.77.41,5.61.82.38.08.86,1.01.81,1.49-.1.91-.45,1.84-.87,2.67-6.24,12.26-12.49,24.5-18.77,36.74-8.75,17.07-17.49,34.16-26.29,51.21-7.92,15.34-15.95,30.63-23.86,45.98-7.77,15.06-15.44,30.17-23.17,45.26-4.23,8.25-8.47,16.5-12.71,24.75-9.21,17.92-18.41,35.84-27.64,53.74-11.14,21.6-22.33,43.16-33.48,64.76-4.54,8.81-9,17.66-13.53,26.47-11.7,22.75-23.45,45.47-35.14,68.22-5.41,10.52-10.68,21.11-16.09,31.63-2.04,3.97-4.3,7.83-6.49,11.72-.41.74-2.11.81-2.53.09-2.12-3.56-4.38-7.04-6.26-10.72-8.18-15.93-16.19-31.95-24.37-47.87-7.6-14.79-15.37-29.49-22.99-44.27-7.33-14.21-14.55-28.47-21.86-42.69-12.88-25.02-25.82-50.01-38.68-75.04-7.89-15.36-15.62-30.8-23.52-46.16-7.6-14.79-15.37-29.49-22.98-44.27-7.47-14.5-14.83-29.05-22.28-43.56-8.48-16.5-17.03-32.95-25.5-49.45-9.64-18.78-19.22-37.58-28.82-56.38-.29-.57-.47-1.19-.71-1.78-.49-1.2.29-2.87,1.47-2.97,2.22-.18,4.45-.4,6.67-.41,11.51-.04,23.03-.02,34.54-.02,31.67,0,63.33,0,95,0Z"/>
      <path class="cls-1" d="m3234.73,736.61c-13.43,0-26.86-.1-40.29.03-10.88.1-21.73-.26-32.57-1.05-22.46-1.64-44.17-6.5-65.2-14.64-14.38-5.56-28.04-12.42-41.04-20.64-13.29-8.4-25.6-18.01-36.85-29.01-8.47-8.28-16.55-16.9-23.72-26.34-11.07-14.56-20.4-30.14-27.93-46.84-12.38-27.47-18.75-56.33-20.36-86.29-.9-16.67.42-33.26,3.43-49.66,1.55-8.48,3.34-16.96,5.69-25.24,5.52-19.46,13.53-37.89,23.99-55.24,7.12-11.81,15.18-22.9,24.19-33.34,14.52-16.82,31.2-31.1,49.74-43.29,15.86-10.43,32.96-18.26,50.72-24.75,9.93-3.63,20.23-5.92,30.56-8.05,7.52-1.55,15.11-2.71,22.75-3.35,7.64-.64,15.31-1.09,22.97-1.1,41.88-.1,83.77-.05,125.65-.05,1.28,0,2.56,0,3.84.03,4.78.1,6.13.63,6.23,6.11.11,6.07.52,12.14.58,18.2.1,11.19.03,22.39.03,33.58,0,2.24.02,4.48-.03,6.72-.14,5.96-.92,6.78-6.51,6.92-1.6.04-3.2.02-4.8.02-32.61,0-65.22.04-97.84-.03-8.3-.02-16.61-.54-24.91-.57-27.7-.08-53.9,6.22-78.31,19.31-22.91,12.29-41.86,29.2-56.93,50.43-12.75,17.97-21.2,37.86-26.38,59.2-.83,3.41-1.43,6.89-1.85,10.38-1.12,9.21-2.09,18.44-1.8,27.73.73,22.98,5.81,44.93,15.83,65.7,15.95,33.05,40.08,58.18,72.45,75.44,14.52,7.74,29.96,12.87,46.02,15.98,9.39,1.81,18.94,2.85,28.58,2.83,41.24-.1,82.48-.06,123.72-.03,13.11,0,12.09-1.13,12.11,11.64.03,15.99.02,31.99,0,47.98,0,2.56-.07,5.12-.18,7.67-.07,1.59-1.48,3.1-2.96,3.26-1.27.14-2.54.3-3.81.33-2.56.06-5.12.04-7.67.04-22.38,0-44.76,0-67.14,0Z"/>
      <path class="cls-1" d="m2034.98,501.85c0-73.57,0-147.14.01-220.7,0-3.51.2-7.03.32-10.54.03-.97,1.59-2.54,2.51-2.6,1.27-.09,2.55-.24,3.83-.24,18.54-.02,37.09-.02,55.63,0,1.59,0,3.18.19,4.76.34,1.06.1,2.48,1.5,2.59,2.49.11.95.25,1.91.26,2.86.04,3.2.04,6.4.04,9.6,0,122.51,0,245.01.02,367.52,0,3.51.21,7.01.37,10.52.05,1.11,1.41,2.4,2.54,2.48,2.23.15,4.46.33,6.69.34,10.23.04,20.46.02,30.69.02,64.59,0,129.17,0,193.76,0,3.51,0,7.03.07,10.54.21,1.98.08,3.49,1.69,3.64,3.75.13,1.91.21,3.83.21,5.75.02,17.91,0,35.82.01,53.74,0,8.45-.52,9.31-9.19,9.23-1.6-.02-3.2,0-4.8,0-96.88,0-193.76,0-290.64,0-3.2,0-6.39-.04-9.59-.16-2.61-.1-3.95-1.52-4.07-4.3-.12-2.87-.15-5.75-.15-8.63,0-45.74,0-91.48,0-137.22v-84.44Z"/>
      <path class="cls-1" d="m1662.79,502.06c0,73.55,0,147.11-.01,220.66,0,3.51-.16,7.03-.34,10.54-.07,1.38-1.78,2.89-3.29,3.02-1.91.16-3.82.32-5.73.32-18.22.02-36.44.02-54.67,0-1.6,0-3.19-.09-4.78-.2-2.14-.16-3.7-1.59-3.87-3.54-.11-1.27-.19-2.55-.21-3.83-.03-2.88-.02-5.76-.02-8.63,0-145.83,0-291.66,0-437.49,0-3.2-.02-6.4.07-9.59.12-4.37,1.22-5.36,5.9-5.52.96-.03,1.92-.03,2.88-.03,18.22,0,36.44,0,54.67,0,1.91,0,3.83.09,5.74.22,2.01.14,3.33,1.62,3.48,3.82.09,1.28.15,2.55.16,3.83.03,2.88.02,5.76.02,8.63,0,72.6,0,145.19,0,217.79Z"/>
      <path class="cls-1" d="m2667.5,501.76c0,73.57.02,147.15-.02,220.72,0,15.19,1.63,14.11-13.74,14.13-16.63.02-33.26.04-49.88-.01-8.99-.03-8.99-.09-9.06-9.07-.01-1.6,0-3.2,0-4.8,0-147.15,0-294.3,0-441.45,0-3.51.12-7.03.22-10.54.04-1.19,1.25-2.46,2.4-2.59,1.26-.15,2.53-.36,3.8-.36,19.83-.02,39.65-.02,59.48,0,1.27,0,2.54.17,3.81.3,1.08.11,2.53,1.46,2.65,2.43.12.95.27,1.9.29,2.86.05,3.2.05,6.4.05,9.6,0,72.93,0,145.87,0,218.8Z"/>
    </g>
  </g>
</svg>